<svg width="998" height="1647" viewBox="0 0 998 1647" fill="none" xmlns="http://www.w3.org/2000/svg">
<path d="M1066.96 -18.3628C1061.94 -18.5278 1057.71 -14.5591 1057.52 -9.48819C1057.45 -7.59864 1057.94 -5.8297 1058.85 -4.33786L954.666 74.9819C954.421 74.9511 954.178 74.9284 953.922 74.9187C952.668 74.8788 951.464 75.0969 950.364 75.5208L853.771 -124.313C856.293 -125.876 858.025 -128.633 858.148 -131.833C858.341 -136.904 854.431 -141.145 849.403 -141.318C844.378 -141.483 840.152 -137.514 839.951 -132.441C839.877 -130.436 840.446 -128.566 841.471 -127.021L722.276 -29.2786C720.703 -30.9035 718.534 -31.941 716.106 -32.0185C712.847 -32.1242 709.929 -30.4839 708.222 -27.9367L612.603 -80.3491C613.036 -81.3711 613.314 -82.4776 613.36 -83.6545C613.553 -88.7254 609.643 -92.9661 604.618 -93.1311C599.592 -93.296 595.366 -89.3273 595.165 -84.254C595.049 -81.1794 596.451 -78.4103 598.687 -76.671L533.711 26.6106C532.565 26.018 531.279 25.662 529.909 25.6136C525.405 25.4656 521.543 28.6536 520.655 32.968L398.376 14.2788C398.506 9.26227 394.621 5.07572 389.63 4.909C384.605 4.74402 380.379 8.71275 380.186 13.7836C380.149 14.667 380.253 15.5248 380.452 16.3451L293.681 50.0548C292.257 47.1249 289.317 45.0723 285.855 44.9583C284.953 44.9255 284.083 45.0325 283.255 45.2501L235.889 -88.5286C238.888 -89.9556 241.017 -92.9668 241.155 -96.5324C241.348 -101.603 237.438 -105.844 232.413 -106.009C227.387 -106.174 223.161 -102.205 222.96 -97.1318C222.948 -96.7581 222.958 -96.3999 222.986 -96.0384L18.0448 -58.6043C17.0321 -62.3645 13.6823 -65.1818 9.60915 -65.3206C4.5917 -65.488 0.357388 -61.5168 0.164695 -56.4459C-0.0279986 -51.375 3.88154 -47.1344 8.90701 -46.9694C10.3379 -46.922 11.7009 -47.2238 12.929 -47.7751L161.171 219.742C159.111 221.358 157.746 223.845 157.637 226.68C157.444 231.751 161.354 235.991 166.379 236.156C171.405 236.321 175.631 232.353 175.824 227.282C175.84 226.775 175.809 226.282 175.753 225.797L278.964 196.288C280.17 199.725 283.358 202.23 287.19 202.355C288.436 202.397 289.632 202.181 290.732 201.757L408.036 427.539C405.635 429.127 403.996 431.812 403.878 434.913C403.685 439.984 407.595 444.225 412.623 444.398C417.648 444.563 421.875 440.594 422.075 435.521C422.116 434.354 421.936 433.238 421.588 432.208L528.485 383.225C529.989 385.892 532.78 387.735 536.049 387.847L535.211 387.882L545.323 688.159C540.98 688.737 537.547 692.401 537.377 696.954C537.289 699.298 538.084 701.46 539.462 703.135L451.107 792.215C449.618 790.961 447.718 790.185 445.624 790.111C440.598 789.946 436.372 793.915 436.179 798.985C435.986 804.056 439.896 808.297 444.924 808.47C446.884 808.532 448.719 807.963 450.24 806.952L567.068 955.012C565.414 956.609 564.354 958.827 564.254 961.306C564.061 966.377 567.971 970.618 572.998 970.791C575.091 970.856 577.032 970.202 578.618 969.057L653.735 1056.7C652.232 1058.28 651.271 1060.39 651.183 1062.73C650.991 1067.8 654.9 1072.04 659.928 1072.22C660.457 1072.23 660.98 1072.19 661.485 1072.13L712.657 1278.52C709.327 1279.8 706.9 1282.99 706.746 1286.8C706.639 1289.67 707.845 1292.27 709.832 1294.03L626.617 1414.21C625.352 1413.45 623.881 1413 622.308 1412.94C617.282 1412.78 613.056 1416.75 612.863 1421.82C612.671 1426.89 616.58 1431.13 621.608 1431.3C621.642 1431.3 621.677 1431.3 621.722 1431.3L649.148 1600.8C645.754 1602.04 643.274 1605.26 643.126 1609.12C642.934 1614.19 646.843 1618.43 651.871 1618.6C655.775 1618.73 659.186 1616.36 660.61 1612.91L788.028 1637.1C788.013 1637.23 787.998 1637.36 787.994 1637.49C787.801 1642.56 791.711 1646.81 796.736 1646.97C801.762 1647.14 805.988 1643.17 806.181 1638.1C806.228 1636.89 806.038 1635.74 805.662 1634.68L917.649 1588.27C919.105 1591.1 921.987 1593.08 925.378 1593.19C930.403 1593.35 934.63 1589.38 934.83 1584.31C934.979 1580.34 932.604 1576.88 929.149 1575.48L989.821 1371.53C990.294 1371.63 990.777 1371.69 991.271 1371.71C996.297 1371.87 1000.52 1367.9 1000.72 1362.83C1000.92 1357.76 997.007 1353.52 991.982 1353.35C991.178 1353.32 990.399 1353.41 989.646 1353.59L953.688 1241.41C956.817 1240.04 959.066 1236.96 959.202 1233.3C959.395 1228.23 955.485 1223.99 950.457 1223.81C948.233 1223.74 946.167 1224.48 944.542 1225.76L856.84 1131.42C858.196 1129.87 859.056 1127.87 859.137 1125.65C859.231 1123.24 858.388 1121.03 856.955 1119.35L1068.84 898.363C1070.31 899.552 1072.16 900.3 1074.2 900.372C1079.23 900.537 1083.46 896.569 1083.65 891.498C1083.84 886.427 1079.93 882.186 1074.9 882.013C1073.44 881.967 1072.05 882.277 1070.8 882.851L889.107 561.805C893.699 561.477 897.411 557.692 897.595 552.95C897.788 547.879 893.878 543.638 888.851 543.465C888.39 543.447 887.945 543.477 887.498 543.535L860.306 410.218C863.909 409.09 866.602 405.766 866.758 401.755C866.835 399.732 866.253 397.848 865.21 396.299L997.717 286.722L998.22 288.991L998.988 285.664L999.783 285.007L999.202 284.727L1065.35 -0.084865C1065.65 -0.0445478 1065.94 -0.0203706 1066.24 -0.00671519C1071.27 0.158279 1075.5 -3.81045 1075.69 -8.88135C1075.9 -13.9491 1071.99 -18.1979 1066.96 -18.3628ZM1065.48 890.546L915.166 893.766C914.693 889.312 911.054 885.782 906.478 885.629C906.478 885.629 906.478 885.629 906.47 885.632L901.525 794.001L1066.25 887.466C1065.83 888.424 1065.56 889.456 1065.48 890.546ZM652.56 1600.24C651.952 1600.22 651.352 1600.26 650.767 1600.35L638.447 1524.23L623.391 1431.18C624.267 1431.04 625.105 1430.76 625.883 1430.38L734.058 1563.09L659.99 1604.61C658.463 1602.07 655.732 1600.34 652.56 1600.24ZM582.081 958.97C581.46 956.834 580.085 955.017 578.251 953.842L617.765 876.537L728.809 925.673C728.533 926.488 728.37 927.358 728.33 928.26C728.316 928.687 728.334 929.104 728.378 929.522L582.081 958.97ZM555.569 697.546C555.623 696.155 555.356 694.836 554.855 693.641L676.079 627.633L571.72 704.768L555.326 699.302C555.464 698.732 555.547 698.152 555.569 697.546ZM417.382 427.168L493.124 252.077L590.458 279.548C590.378 279.987 590.316 280.428 590.303 280.89C590.224 282.905 590.806 284.789 591.84 286.34L419.479 428.765C418.865 428.133 418.162 427.59 417.382 427.168ZM169.247 218.148L191.449 108.359L280.145 187.894C279.145 189.309 278.53 191.021 278.456 192.876C278.434 193.481 278.475 194.068 278.557 194.642L175.403 224.134C174.483 221.252 172.177 218.979 169.247 218.148ZM191.833 106.428L231.079 -87.6938C231.288 -87.6694 231.504 -87.6474 231.716 -87.6416C232.131 -87.6275 232.542 -87.6562 232.943 -87.6906L284.684 184.482C283.38 184.924 282.204 185.653 281.241 186.599L191.833 106.428ZM18.3619 -55.8384C18.3741 -56.2121 18.3623 -56.5784 18.3368 -56.9318L223.293 -94.3441C224.107 -91.3161 226.443 -88.9114 229.445 -88.0139L190.382 105.127L16.5736 -50.7205C17.6351 -52.1634 18.2885 -53.9221 18.3619 -55.8384ZM857.173 392.298C855.35 392.405 853.663 393.062 852.273 394.103L765.098 295.668L858.514 217.374C859.895 218.767 861.715 219.717 863.777 219.977L857.173 392.298ZM982.529 1362.23C982.441 1364.51 983.195 1366.62 984.497 1368.28L858.272 1490.82C857.67 1490.29 856.996 1489.85 856.263 1489.5L932.291 1283.64L985.557 1355.74C983.783 1357.34 982.632 1359.64 982.529 1362.23ZM906.052 1259.29L853.528 1488.68C853.238 1488.64 852.95 1488.62 852.657 1488.6C850.996 1488.54 849.436 1488.95 848.062 1489.69L753.986 1344.63L901.541 1255.98C902.642 1257.52 904.213 1258.69 906.052 1259.29ZM856.031 1485.27L907.687 1259.67C907.977 1259.71 908.265 1259.74 908.558 1259.75C910.412 1259.81 912.161 1259.3 913.633 1258.4L931.1 1282.03L856.031 1485.27ZM899.813 1250.27C899.798 1250.66 899.814 1251.04 899.847 1251.42L724.59 1284.52C724.151 1282.97 723.315 1281.59 722.204 1280.49L808.757 1176.34L901.164 1245.8C900.367 1247.1 899.88 1248.63 899.813 1250.27ZM667.74 1068.22C667.966 1067.89 668.178 1067.54 668.36 1067.17L841.169 1123.36C841.043 1123.91 840.963 1124.47 840.942 1125.05C840.845 1127.69 841.862 1130.1 843.561 1131.83L808.5 1174.02L667.74 1068.22ZM841.683 1121.75L668.978 1065.59C669.193 1064.87 669.329 1064.11 669.357 1063.32C669.418 1061.78 669.091 1060.31 668.471 1059.01L770.864 988.704L844.778 1117.89C843.438 1118.86 842.359 1120.19 841.683 1121.75ZM742.67 936.017C744.907 934.409 746.411 931.827 746.522 928.851C746.536 928.424 746.52 928.015 746.478 927.605L897.385 897.418C897.576 898.064 897.828 898.683 898.148 899.263L771.433 986.275L742.67 936.017ZM544.055 373.651L615.506 324.264L641.621 386.394C639.407 387.607 637.728 389.715 637.097 392.259L545.501 378.406C545.458 376.657 544.942 375.027 544.055 373.651ZM538.667 35.112C538.691 34.4527 538.643 33.8156 538.539 33.1955L629.247 4.9776L645.856 62.101C643.551 63.0341 641.703 64.8935 640.776 67.2378L538.41 36.9697C538.549 36.3724 538.635 35.747 538.667 35.112ZM607.625 -75.4285C609.327 -76.1244 610.785 -77.3186 611.804 -78.8455L707.423 -26.4332C706.988 -25.4192 706.713 -24.3046 706.674 -23.1301C706.642 -22.3803 706.718 -21.6462 706.857 -20.9397L630.386 2.85021L607.625 -75.4285ZM707.333 -19.3236C707.875 -17.9915 708.713 -16.8117 709.776 -15.8767L653.826 62.6703C652.566 61.9277 651.114 61.4816 649.551 61.4306C648.834 61.4028 648.138 61.4745 647.461 61.6108L630.847 4.47126L707.333 -19.3236ZM848.638 400.313L655.003 393.898C654.917 392.18 654.349 390.583 653.437 389.241L763.797 296.743L851.013 395.228C849.75 396.609 848.893 398.359 848.638 400.313ZM737.78 919.374C737.063 919.347 736.359 919.421 735.682 919.557L686.902 752.306C687.713 752.12 688.48 751.815 689.197 751.429L779.538 811.567L739.803 919.681C739.15 919.511 738.478 919.399 737.78 919.374ZM897.028 894.514C897.011 894.933 897.029 895.351 897.072 895.761L865.677 902.038L746.162 925.939C745.439 923.43 743.685 921.367 741.371 920.251L780.971 812.512L898.118 890.499C897.475 891.7 897.081 893.062 897.028 894.514ZM780.137 809.921L690.701 750.388C691.605 749.627 692.353 748.694 692.917 747.641L782.224 741.899L798.12 740.875C798.56 743.85 800.424 746.372 803.013 747.678L780.137 809.921ZM798.026 739.16C798.028 739.168 798.028 739.168 798.023 739.178L693.616 745.886C693.816 745.173 693.957 744.434 693.983 743.66C694.027 742.387 693.815 741.166 693.399 740.051L750.846 685.208L799.994 733.793C798.833 735.284 798.103 737.137 798.026 739.16ZM693.769 626.405C694.799 624.972 695.433 623.236 695.505 621.347C695.532 620.608 695.469 619.887 695.325 619.191L695.429 619.159L880.161 556.381C880.463 557.082 880.852 557.747 881.317 558.345L750.881 682.863L693.769 626.405ZM608.102 278.457C607.249 275.653 605.101 273.411 602.325 272.479L617.801 207.062L714.483 246.201C714.262 246.937 714.121 247.703 714.087 248.506C714.079 248.747 714.087 248.982 714.097 249.225L608.102 278.457ZM650.942 386.77L719.638 257.275C720.625 257.687 721.697 257.941 722.829 257.983C724.781 258.047 726.608 257.48 728.132 256.478L762.683 295.489L652.373 387.945C651.929 387.508 651.455 387.116 650.942 386.77ZM855.859 210.566C855.833 211.19 855.874 211.803 855.968 212.391L809.997 224.671L731.714 245.579C731.536 245.096 731.313 244.636 731.071 244.199L818.567 181.719L856.906 206.643C856.293 207.826 855.913 209.149 855.859 210.566ZM730.104 242.821C728.508 240.939 726.179 239.712 723.529 239.624C722.46 239.589 721.433 239.753 720.464 240.058L653.476 78.6854C654.592 78.0803 655.564 77.2547 656.346 76.2584L817.061 180.735L730.104 242.821ZM648.859 79.7874C649.927 79.8221 650.955 79.658 651.923 79.3534L718.912 240.725C717.292 241.608 715.96 242.966 715.109 244.618L618.19 205.384L647.919 79.7134C648.227 79.7513 648.541 79.7786 648.859 79.7874ZM717.758 256.211L649.435 385.962C648.458 385.556 647.395 385.3 646.273 385.263C645.186 385.226 644.143 385.395 643.168 385.71L616.926 323.266L716.167 254.671C716.627 255.253 717.166 255.775 717.758 256.211ZM686.763 611.87C686.631 611.867 686.493 611.874 686.363 611.878L663.297 485.167L648.383 403.275C650.244 402.733 651.872 401.611 653.047 400.107L788.882 488.699L691.859 613.67C690.433 612.599 688.681 611.936 686.763 611.87ZM729.453 255.413C731.108 253.816 732.184 251.593 732.281 249.106C732.307 248.481 732.266 247.868 732.169 247.273L856.399 214.03C856.659 214.761 857.015 215.436 857.437 216.065L763.979 294.397L729.453 255.413ZM869.516 202.897C868.271 202.176 866.848 201.739 865.311 201.689C862.291 201.59 859.573 202.992 857.824 205.218L820.058 180.665L946.743 90.2009C947.047 90.5485 947.378 90.8702 947.728 91.1684L899.628 159.883L869.516 202.897ZM944.484 84.7339C944.575 86.2299 945.03 87.6237 945.747 88.8403L818.525 179.68L657.256 74.8353C657.731 73.924 658.068 72.9314 658.216 71.8641L944.484 84.7339ZM646.282 79.3237L616.611 204.747L536.544 172.327C536.764 171.591 536.906 170.825 536.94 170.022C537.016 168.026 536.447 166.156 535.433 164.616L642.676 77.0337C643.67 78.0603 644.894 78.8581 646.282 79.3237ZM535.915 173.902L616.22 206.417L600.688 272.09C600.379 272.052 600.065 272.024 599.745 272.008C598.103 271.954 596.549 272.35 595.188 273.074L533.452 176.91C534.472 176.096 535.308 175.075 535.915 173.902ZM608.498 281.49C608.519 281.025 608.489 280.568 608.437 280.126L714.317 250.92C714.512 251.759 714.817 252.555 715.217 253.288L616.252 321.693L602.796 289.679C606.025 288.349 608.355 285.216 608.498 281.49ZM692.66 627.686L749.659 684.029L692.627 738.472C691.159 736.102 688.628 734.461 685.689 734.223L687.839 630.11C689.681 629.803 691.351 628.94 692.66 627.686ZM899.057 889.085L781.575 810.883L804.576 748.293C805.274 748.494 806.003 748.623 806.77 748.644C808.352 748.698 809.847 748.339 811.171 747.67L900.529 887.614C899.983 888.045 899.49 888.539 899.057 889.085ZM807.47 730.285C805.068 730.208 802.85 731.08 801.163 732.564L752.076 684.04L882.466 559.571C882.952 560.003 883.49 560.376 884.065 560.694L809.837 730.689C809.088 730.46 808.301 730.313 807.47 730.285ZM879.403 552.358C879.37 553.196 879.46 554.006 879.636 554.78L694.85 617.583C694.442 616.554 693.85 615.616 693.114 614.81L790.289 489.617L880.453 548.417C879.832 549.602 879.455 550.933 879.403 552.358ZM653.957 398.684C654.448 397.741 654.79 396.703 654.934 395.593L848.569 402.008C848.694 404.418 849.754 406.588 851.397 408.156L789.911 487.354L653.957 398.684ZM944.605 82.6533L944.119 83.022L658.304 70.1727C658.218 68.1025 657.449 66.2058 656.213 64.7157L733.656 -13.8518L944.971 81.1673C944.805 81.6409 944.69 82.1427 944.605 82.6533ZM656.002 62.5164L711.141 -14.8934C712.401 -14.1507 713.854 -13.7047 715.417 -13.6536C718.932 -13.5382 722.05 -15.4508 723.681 -18.3448L732.02 -14.5941L656.002 62.5164ZM603.92 -74.7637C604.637 -74.736 605.333 -74.8077 606.01 -74.944L628.776 3.35095L538.1 31.5591C537.504 29.953 536.472 28.5594 535.142 27.5209L600.119 -75.7606C601.257 -75.1656 602.542 -74.8096 603.92 -74.7637ZM537.849 38.568L626.408 64.7559L530.947 43.8738C534.013 43.3864 536.59 41.3574 537.849 38.568ZM640.185 69.5059C640.15 69.7721 640.123 70.0358 640.117 70.3108C640.04 72.3072 640.609 74.1769 641.623 75.717L534.38 163.299C532.805 161.666 530.634 160.62 528.198 160.545C526.05 160.47 524.05 161.161 522.445 162.364L396.155 20.0927C397.027 19.0774 397.679 17.8744 398.045 16.5379L640.185 69.5059ZM385.454 22.4539C386.518 22.9481 387.698 23.2397 388.944 23.282C391.205 23.3576 393.296 22.5869 394.943 21.2643L521.198 163.503C520.761 163.98 520.371 164.495 520.038 165.055L350.288 84.1L385.454 22.4539ZM519.309 166.59C518.984 167.473 518.783 168.424 518.753 169.42C518.752 169.535 518.757 169.639 518.756 169.754L296.468 191.311C295.981 188.861 294.512 186.756 292.49 185.444L349.448 85.581L519.309 166.59ZM290.993 184.668C290.039 184.282 288.996 184.036 287.901 184.001L286.462 63.2707C289.366 62.9472 291.884 61.2532 293.328 58.8215L347.923 84.8578L290.993 184.668ZM284.782 63.2993L286.216 183.538L234.95 -86.1366L281.674 45.8478C278.674 47.2748 276.545 50.286 276.415 53.8491C276.227 58.7865 279.943 62.9364 284.782 63.2993ZM296.643 193.478C296.648 193.317 296.635 193.154 296.64 192.994L518.894 171.438C519.392 174.166 521.088 176.476 523.439 177.775L492.174 250.042L296.485 194.812C296.566 194.373 296.628 193.931 296.643 193.478ZM524.984 178.448C525.778 178.708 526.62 178.865 527.496 178.897C529.138 178.95 530.692 178.554 532.053 177.83L593.789 273.994C592.522 275.007 591.527 276.35 590.928 277.907L493.822 250.498L524.984 178.448ZM594.924 289.204C596.143 289.897 597.543 290.315 599.043 290.359C599.776 290.382 600.49 290.313 601.173 290.166L614.833 322.664L543.011 372.305C542.63 371.901 542.213 371.527 541.766 371.196L594.924 289.204ZM545.38 380.099L636.838 393.933C636.833 394.005 636.818 394.071 636.823 394.149C636.63 399.22 640.54 403.46 645.568 403.633C645.956 403.647 646.344 403.625 646.726 403.588L684.684 612.056C684.073 612.181 683.48 612.362 682.921 612.604L542.256 385.669C543.874 384.276 545.023 382.331 545.38 380.099ZM679.574 627.147C681.167 628.959 683.458 630.145 686.055 630.232C686.082 630.233 686.116 630.231 686.143 630.232L683.999 734.246C680.689 734.587 677.873 736.725 676.565 739.705L573.671 705.423L679.574 627.147ZM676.033 741.312C675.903 741.88 675.813 742.463 675.79 743.069C675.77 743.595 675.807 744.103 675.867 744.604L453.912 796.388C453.703 795.738 453.424 795.119 453.088 794.543L572.013 706.652L676.033 741.312ZM454.364 799.579C454.383 799.054 454.347 798.545 454.287 798.044L676.242 746.261C676.898 748.28 678.227 749.997 679.985 751.124L617.003 874.338L453.892 802.163C454.168 801.348 454.331 800.479 454.364 799.579ZM681.48 751.892C682.431 752.271 683.456 752.513 684.543 752.551C684.773 752.56 684.996 752.545 685.221 752.538L734.077 920.047C732.132 920.835 730.52 922.279 729.498 924.124L618.545 875.03L681.48 751.892ZM733.62 936.914C734.673 937.403 735.842 937.689 737.08 937.734C738.556 937.785 739.965 937.46 741.218 936.875L770.03 987.241L667.608 1057.57C667.091 1056.85 666.466 1056.21 665.755 1055.67L733.62 936.914ZM666.647 1069.52L807.409 1175.33L720.902 1279.42C719.55 1278.52 717.94 1277.95 716.191 1277.89C715.538 1277.87 714.898 1277.93 714.275 1278.04L663.122 1071.72C664.458 1071.26 665.661 1070.51 666.647 1069.52ZM724.936 1287.38C724.949 1286.98 724.936 1286.58 724.898 1286.18L900.145 1253.08C900.285 1253.58 900.47 1254.07 900.685 1254.53L753.071 1343.22L721.364 1294.34C723.442 1292.72 724.822 1290.22 724.936 1287.38ZM846.66 1490.63C845.493 1491.56 844.56 1492.79 843.953 1494.2L630.416 1425.43C630.786 1424.49 631.013 1423.48 631.05 1422.42C631.099 1421.16 630.892 1419.96 630.479 1418.85L752.541 1345.51L846.66 1490.63ZM627.342 1429.48C628.251 1428.8 629.034 1427.95 629.646 1426.97L843.431 1495.81C843.31 1496.35 843.229 1496.91 843.205 1497.48C843.153 1498.9 843.431 1500.26 843.958 1501.48L735.557 1562.25L627.342 1429.48ZM844.772 1502.97C845.613 1504.22 846.765 1505.25 848.109 1505.95L798.71 1628.75C798.286 1628.68 797.859 1628.62 797.425 1628.61C795.13 1628.53 792.993 1629.33 791.341 1630.69L736.634 1563.58L844.772 1502.97ZM800.894 1629.42C800.722 1629.34 800.533 1629.27 800.348 1629.2L849.669 1506.58C850.398 1506.8 851.156 1506.94 851.949 1506.96C854.033 1507.03 855.969 1506.39 857.548 1505.24L874.771 1525.47L800.894 1629.42ZM858.831 1504.14C860.342 1502.56 861.311 1500.45 861.402 1498.09C861.49 1495.8 860.736 1493.69 859.434 1492.04L985.612 1369.54L875.786 1524.05L858.831 1504.14ZM986.898 1354.71L932.989 1281.74L947.715 1241.86C948.369 1242.03 949.041 1242.14 949.747 1242.17C950.551 1242.19 951.33 1242.11 952.082 1241.93L988.049 1354.1C987.651 1354.3 987.268 1354.48 986.898 1354.71ZM946.138 1241.29L931.798 1280.13L914.983 1257.37C916.755 1255.75 917.907 1253.46 918.008 1250.87C918.049 1249.79 917.892 1248.75 917.596 1247.78L942.07 1237.34C942.97 1239.06 944.394 1240.45 946.138 1241.29ZM902.17 1244.44L809.841 1175.03L844.844 1132.91C846.221 1133.88 847.883 1134.47 849.684 1134.53C850.903 1134.57 852.075 1134.36 853.153 1133.95L904.285 1242.68C903.493 1243.17 902.783 1243.76 902.17 1244.44ZM850.386 1116.18C848.91 1116.12 847.499 1116.44 846.241 1117.04L772.272 987.754L899.09 900.676C900.144 901.966 901.541 902.966 903.146 903.515L851.376 1116.27C851.055 1116.22 850.722 1116.19 850.386 1116.18ZM904.796 885.738C903.784 885.897 902.82 886.218 901.944 886.688L812.602 746.766C813.365 746.181 814.031 745.475 814.582 744.673L899.791 793.016L904.796 885.738ZM815.414 743.194C815.883 742.144 816.172 740.989 816.215 739.77C816.358 736.132 814.371 732.925 811.386 731.344L885.597 561.38C886.139 561.558 886.704 561.694 887.295 561.769L899.671 791.009L815.414 743.194ZM881.374 547L791.337 488.275L852.727 409.194C854.057 410.056 855.62 410.583 857.316 410.638C857.776 410.656 858.222 410.625 858.668 410.568L885.861 543.885C884.06 544.453 882.51 545.543 881.374 547ZM858.852 392.357L865.397 221.376L905.329 240.845L859.497 392.469C859.284 392.428 859.069 392.379 858.852 392.357ZM866.32 219.94C870.557 219.271 873.89 215.655 874.056 211.173C874.167 208.259 872.919 205.628 870.887 203.87L949.113 92.1283C949.438 92.3109 949.774 92.4724 950.13 92.6104L905.822 239.197L866.32 219.94ZM948.857 76.2808C947.533 77.0993 946.436 78.2447 945.66 79.618L734.919 -15.1449L843.246 -125.035C844.73 -123.797 846.622 -123.018 848.706 -122.95C849.96 -122.911 851.164 -123.129 852.263 -123.553L948.857 76.2808ZM837.288 -121.392L733.286 -15.8791L724.372 -19.8861C724.651 -20.72 724.828 -21.6021 724.861 -22.5283C724.935 -24.5327 724.366 -26.4025 723.342 -27.9482L837.288 -121.392ZM520.475 34.6702C520.408 37.9145 522.016 40.7881 524.514 42.4651L415.635 18.6436L520.475 34.6702ZM381.016 17.9609C381.683 19.422 382.711 20.6846 384.005 21.6019L348.771 83.3743L294.053 57.2786C294.379 56.3952 294.58 55.4443 294.61 54.4486C294.647 53.4771 294.527 52.536 294.291 51.6479L381.016 17.9609ZM14.4072 -48.6054C14.7783 -48.8597 15.1319 -49.1438 15.4622 -49.4473L189.998 107.058L167.591 217.843C167.42 217.825 167.256 217.805 167.089 217.803C165.473 217.75 163.941 218.13 162.599 218.831L14.4072 -48.6054ZM292.252 201.011C293.963 199.96 295.302 198.362 296.032 196.448L491.503 251.621L415.844 426.493C415.051 426.233 414.208 426.076 413.333 426.044C411.989 425.997 410.702 426.258 409.537 426.755L292.252 201.011ZM420.905 430.664C420.793 430.46 420.672 430.259 420.538 430.071L592.899 287.646C593.101 287.858 593.317 288.056 593.549 288.249L540.319 370.352C539.232 369.839 538.029 369.528 536.757 369.485C531.731 369.32 527.505 373.289 527.312 378.359C527.272 379.526 527.452 380.642 527.8 381.672L420.905 430.664ZM536.892 387.827C538.327 387.741 539.67 387.313 540.86 386.632L681.423 613.396C679.048 614.984 677.431 617.654 677.308 620.739C677.255 622.13 677.521 623.449 678.022 624.644L554.063 692.14C552.537 689.813 549.97 688.228 547.002 688.069L536.892 387.827ZM546.125 706.42C549.96 706.553 553.332 704.254 554.794 700.909L570.062 705.997L453.617 792.065L540.652 704.322C542.131 705.57 544.025 706.357 546.125 706.42ZM451.557 805.871C452.211 805.24 452.767 804.515 453.211 803.71L616.231 875.843L576.76 953.056C575.808 952.677 574.784 952.435 573.699 952.405C571.739 952.343 569.904 952.912 568.383 953.923L451.557 805.871ZM579.884 967.921C581.387 966.344 582.348 964.235 582.444 961.89C582.458 961.462 582.44 961.045 582.395 960.627L728.698 931.168C729.278 933.167 730.511 934.886 732.17 936.062L664.347 1054.78C663.219 1054.22 661.964 1053.88 660.629 1053.83C658.536 1053.77 656.595 1054.42 655.009 1055.56L579.884 967.921ZM711.175 1294.99C712.437 1295.74 713.91 1296.2 715.481 1296.25C717.081 1296.31 718.598 1295.93 719.934 1295.24L751.613 1344.09L629.737 1417.32C629.258 1416.52 628.661 1415.8 627.974 1415.19L711.175 1294.99ZM661.106 1611.27C661.21 1610.76 661.285 1610.25 661.311 1609.71C661.357 1608.45 661.148 1607.23 660.734 1606.13L735.147 1564.41L790.145 1631.89C789.299 1632.9 788.664 1634.1 788.308 1635.42L661.106 1611.27ZM804.945 1633.14C804.288 1632.01 803.407 1631.03 802.354 1630.28L875.905 1526.8L919.204 1577.65C917.693 1579.23 916.716 1581.34 916.633 1583.7C916.591 1584.75 916.738 1585.75 917.019 1586.7L804.945 1633.14ZM927.528 1575C927.055 1574.91 926.572 1574.84 926.078 1574.83C923.993 1574.76 922.06 1575.41 920.479 1576.55L876.913 1525.38L987.011 1370.49C987.393 1370.71 987.797 1370.9 988.215 1371.07L927.528 1575ZM943.304 1226.93C941.948 1228.47 941.088 1230.48 941.007 1232.7C940.966 1233.78 941.123 1234.81 941.42 1235.79L916.945 1246.22C915.477 1243.44 912.622 1241.5 909.258 1241.39C908.039 1241.35 906.867 1241.56 905.789 1241.97L854.657 1133.24C854.983 1133.04 855.289 1132.83 855.588 1132.6L943.304 1226.93ZM855.743 1118.18C854.939 1117.52 854.013 1117 853.01 1116.65L904.778 903.889C905.107 903.938 905.44 903.968 905.776 903.98C910.679 904.147 914.818 900.355 915.193 895.458L1065.51 892.238C1065.71 894.114 1066.47 895.829 1067.63 897.191L855.743 1118.18ZM1067.09 885.995L901.413 791.991L889.181 565.377L1069.34 883.712C1068.46 884.334 1067.7 885.104 1067.09 885.995ZM864.154 395.001C863.301 394.126 862.265 393.429 861.11 392.954L906.853 241.595L996.688 285.398L864.154 395.001ZM997.038 283.679L907.347 239.947L951.726 93.1006C952.21 93.1994 952.703 93.269 953.216 93.2885C953.729 93.3079 954.234 93.2684 954.723 93.207L997.038 283.679ZM998.259 281.412L956.367 92.8194C959.895 91.6448 962.515 88.3693 962.666 84.4033C962.818 80.3492 960.344 76.824 956.776 75.4915L1059.85 -2.98778C1060.89 -1.84249 1062.21 -0.959297 1063.71 -0.458409L998.259 281.412Z" fill="black"/>
</svg>
