<svg width="110" height="26" viewBox="0 0 110 26" fill="none" xmlns="http://www.w3.org/2000/svg">
<g clip-path="url(#clip0_103_566)">
<path d="M31.3 2.9C30.7 2.9 30.1 2.9 29.4 2.9C28.7 2.9 28.1 2.9 27.4 3C26.7 3 26.1 3.1 25.5 3.1C24.9 3.1 24.3 3.2 23.8 3.3C23.9 2.9 24 2.5 24 2.2C24 1.9 23.9 1.6 23.8 1.1C25.3 1.1 26.8 1.2 28.3 1.2C29.8 1.2 31.3 1.3 32.8 1.3C34.3 1.3 35.8 1.3 37.3 1.2C38.8 1.2 40.3 1.1 41.8 1.1C41.7 1.6 41.6 1.9 41.6 2.2C41.6 2.5 41.7 2.9 41.8 3.3C41.3 3.2 40.8 3.2 40.1 3.1C39.5 3.1 38.8001 3 38.2001 3C37.5001 3 36.9001 2.9 36.2001 2.9C35.5001 2.9 34.9 2.9 34.3 2.9C34.2 5.3 34.2001 7.7 34.2001 10.1V16.1C34.2001 17.6 34.2 19.2 34.3 20.6C34.4 22.1 34.4 23.6 34.5 25C34 25 33.4 24.9 32.8 24.9C32.2 24.9 31.6 24.9 31.1 25C31.2 23.6 31.2 22.1 31.3 20.6C31.4 19.1 31.4 17.6 31.4 16.1V10.1C31.4 7.7 31.3 5.3 31.3 2.9Z" fill="black"/>
<path d="M45.9001 21.8C46.2001 22.2 46.6001 22.6 47.1001 23C47.6001 23.3 48.1001 23.6 48.7001 23.9C49.3001 24.1 50.0001 24.2 50.7001 24.2C51.5001 24.2 52.2001 24.1 52.8001 23.8C53.4001 23.5 53.9001 23.2 54.4001 22.7C54.8001 22.2 55.2001 21.7 55.4001 21.1C55.6001 20.5 55.7001 19.8 55.7001 19.1C55.7001 18 55.4001 17.2 54.9001 16.5C54.4001 15.9 53.7001 15.3 52.9001 14.9C52.1001 14.5 51.2001 14.1 50.3001 13.7C49.4001 13.4 48.5001 12.9 47.7001 12.4C46.9001 11.9 46.2001 11.2 45.7001 10.4C45.2001 9.6 44.9001 8.5 44.9001 7.1C44.9001 6.1 45.1001 5.2 45.4001 4.4C45.7001 3.6 46.3001 2.9 46.9001 2.3C47.6001 1.7 48.4001 1.3 49.3001 0.9C50.2001 0.5 51.3001 0.4 52.4001 0.4C53.5001 0.4 54.5001 0.5 55.3001 0.8C56.1001 1.1 56.9001 1.5 57.6001 2C57.4001 2.4 57.2001 2.8 57.1001 3.3C57.0001 3.7 56.8001 4.3 56.7001 5H56.3001C56.2001 4.7 56.0001 4.3 55.8001 3.9C55.6001 3.5 55.3001 3.2 55.0001 2.8C54.7001 2.5 54.3001 2.2 53.8001 2C53.3001 1.8 52.8001 1.7 52.1001 1.7C51.4001 1.7 50.8001 1.8 50.3001 2C49.8001 2.2 49.3001 2.5 48.9001 2.9C48.5001 3.3 48.2001 3.7 48.0001 4.3C47.8001 4.8 47.7001 5.4 47.7001 6C47.7001 7.1 48.0001 8 48.5001 8.6C49.0001 9.2 49.7001 9.8 50.5001 10.2C51.3001 10.6 52.2001 11 53.1001 11.4C54.0001 11.7 54.9001 12.2 55.7001 12.6C56.5001 13.1 57.2001 13.7 57.7001 14.5C58.2001 15.3 58.5001 16.3 58.5001 17.6C58.5001 18.7 58.3001 19.7 57.9001 20.6C57.5001 21.6 57.0001 22.4 56.2001 23.1C55.5001 23.8 54.6001 24.4 53.5001 24.7C52.4001 25.1 51.2001 25.3 49.9001 25.3C48.5001 25.3 47.3001 25.1 46.4001 24.7C45.5001 24.3 44.8001 23.9 44.1001 23.4C44.3001 22.9 44.5001 22.4 44.5001 22C44.6001 21.6 44.7001 21 44.7001 20.3H45.1001C45.3001 21 45.6001 21.4 45.9001 21.8Z" fill="black"/>
<path d="M63.1001 25.1C63.2001 23.7 63.2001 22.2 63.3001 20.7C63.4001 19.2 63.4001 17.7 63.4001 16.2V10.2C63.4001 8.7 63.4001 7.2 63.3001 5.7C63.2001 4.2 63.2001 2.7 63.1001 1.2H73.7001C75.7001 1.2 77.5001 1.5 79.0001 2C80.5001 2.5 81.6001 3.3 82.6001 4.3C83.5001 5.3 84.2001 6.5 84.6001 7.9C85.0001 9.3 85.2001 10.9 85.2001 12.7C85.2001 15 84.8001 17 84.0001 18.6C83.2001 20.2 82.2001 21.5 80.9001 22.5C79.7001 23.5 78.3001 24.2 76.8001 24.6C75.3001 25 73.9001 25.2 72.5001 25.2H63.1001V25.1ZM66.3001 16.2C66.3001 18.7 66.4001 21.2 66.5001 23.6C67.0001 23.7 67.7001 23.8 68.5001 23.9C69.3001 24 70.2001 24 71.1001 24C72.4001 24 73.7001 23.8 74.9001 23.5C76.2001 23.2 77.3001 22.6 78.3001 21.8C79.3001 21 80.1001 19.8 80.8001 18.4C81.4001 16.9 81.8001 15.1 81.8001 12.8C81.8001 10.8 81.5001 9.1 81.0001 7.8C80.5001 6.5 79.8001 5.5 78.9001 4.7C78.1001 3.8 77.0001 3.3 75.8001 3C74.6001 2.7 73.3001 2.6 71.8001 2.6C70.8001 2.6 69.8001 2.6 68.9001 2.7C68.0001 2.8 67.2001 2.9 66.5001 2.9C66.4001 4 66.4001 5.2 66.3001 6.4C66.3001 7.6 66.2001 8.9 66.2001 10.1V16.2H66.3001Z" fill="black"/>
<path d="M107.6 24.3C107.1 24.5 106.6 24.7 106 24.9C105.4 25.1 104.6 25.2 103.9 25.4C103.1 25.5 102.3 25.6 101.4 25.6C99.6001 25.6 97.9001 25.3 96.3001 24.8C94.7001 24.3 93.4001 23.5 92.3001 22.4C91.2001 21.3 90.3001 20 89.6001 18.5C89.0001 17 88.6001 15.2 88.6001 13.2C88.6001 11.2 88.9001 9.5 89.6001 7.9C90.2001 6.4 91.1001 5 92.3001 4C93.5001 2.9 94.8001 2.1 96.4001 1.6C98.0001 0.999999 99.8001 0.799999 101.7 0.799999C103.2 0.799999 104.6 0.999999 105.9 1.3C107.2 1.6 108.3 2 109.3 2.4C109.1 2.7 109 3.2 108.8 3.7C108.7 4.3 108.6 4.7 108.5 5.1L108.4 5C108.2 4.7 107.8 4.4 107.4 4.1C107 3.8 106.5 3.4 105.9 3.1C105.3 2.8 104.7 2.5 104 2.3C103.3 2.1 102.5 2 101.7 2C100.3 2 99.1001 2.2 97.9001 2.7C96.7001 3.1 95.7001 3.8 94.8001 4.7C93.9001 5.6 93.2001 6.8 92.8001 8.2C92.3001 9.6 92.1001 11.3 92.1001 13.2C92.1001 15.1 92.3001 16.8 92.8001 18.2C93.3001 19.6 94.0001 20.8 94.8001 21.7C95.7001 22.6 96.7001 23.3 97.9001 23.7C99.1001 24.1 100.4 24.4 101.7 24.4C102.5 24.4 103.3 24.3 104 24.1C104.7 23.9 105.4 23.6 106 23.3C106.6 23 107.1 22.7 107.6 22.4C108.1 22.1 108.5 21.8 108.8 21.5L108.9 21.6L108.6 23.7C108.4 23.9 108.1 24.1 107.6 24.3Z" fill="black"/>
<path d="M18.2 13L0 0V26L18.2 13Z" fill="#E01F26"/>
</g>
<defs>
<clipPath id="clip0_103_566">
<rect width="109.3" height="26" fill="white"/>
</clipPath>
</defs>
</svg>
