<svg width="29" height="21" viewBox="0 0 29 21" fill="none" xmlns="http://www.w3.org/2000/svg">
<g clip-path="url(#clip0_108_1004)">
<path d="M21.4379 16.5707C21.1773 16.5707 20.9168 16.4352 20.7709 16.2059C19.3848 13.9548 16.9773 12.6104 14.3302 12.6104C11.6831 12.6104 9.27561 13.9548 7.87908 16.2059C7.6498 16.5707 7.1704 16.6853 6.80563 16.4561C6.44087 16.2268 6.32623 15.7474 6.55551 15.3826C8.23342 12.6729 11.1411 11.0471 14.3302 11.0471C17.5193 11.0471 20.427 12.6625 22.1049 15.3826C22.3342 15.7474 22.2195 16.2268 21.8548 16.4561C21.7297 16.529 21.5838 16.5707 21.4379 16.5707Z" fill="black"/>
<path d="M25.5858 13.2982C25.3252 13.2982 25.0751 13.1731 24.9292 12.9438C22.6364 9.41084 18.6761 7.30563 14.3302 7.30563C9.98426 7.30563 6.02397 9.40042 3.73116 12.9334C3.49146 13.2982 3.01206 13.4024 2.64729 13.1627C2.28253 12.923 2.17831 12.4436 2.41801 12.0788C5.00263 8.10811 9.45275 5.73193 14.3302 5.73193C19.2076 5.73193 23.6577 8.10811 26.2423 12.0893C26.482 12.454 26.3778 12.9334 26.013 13.1731C25.8776 13.2565 25.7317 13.2982 25.5858 13.2982Z" fill="black"/>
<path d="M27.8785 8.17072C27.6284 8.17072 27.3887 8.05608 27.2428 7.83722C24.4602 3.90819 19.6349 1.56328 14.3301 1.56328C9.02543 1.56328 4.20012 3.90819 1.41748 7.84764C1.16736 8.20199 0.677534 8.28536 0.323192 8.03524C-0.0207286 7.78511 -0.104103 7.29529 0.146021 6.94094C3.22046 2.59504 8.52518 0 14.3301 0C20.1351 0 25.4398 2.59504 28.5143 6.94094C28.7644 7.29529 28.681 7.78511 28.3267 8.03524C28.1912 8.12903 28.0349 8.17072 27.8785 8.17072Z" fill="black"/>
<path d="M14.3822 21.0001C13.0274 21.0001 11.9331 19.9058 11.9331 18.5509C11.9331 17.1961 13.0274 16.1018 14.3822 16.1018C15.7371 16.1018 16.8314 17.1961 16.8314 18.5509C16.8314 19.9058 15.7371 21.0001 14.3822 21.0001ZM14.3822 17.6651C13.8924 17.6651 13.4964 18.0611 13.4964 18.5509C13.4964 19.0408 13.8924 19.4368 14.3822 19.4368C14.8721 19.4368 15.2681 19.0408 15.2681 18.5509C15.2681 18.0611 14.8721 17.6651 14.3822 17.6651Z" fill="black"/>
</g>
<defs>
<clipPath id="clip0_108_1004">
<rect width="28.66" height="21" fill="white"/>
</clipPath>
</defs>
</svg>
