<svg width="31" height="30" viewBox="0 0 31 30" fill="none" xmlns="http://www.w3.org/2000/svg">
<path d="M14.6092 2.77715C14.9786 2.04275 16.0271 2.04304 16.3961 2.77763L19.9003 9.75317C20.0473 10.0459 20.3283 10.248 20.6526 10.2943L28.4594 11.408C29.2856 11.5258 29.6125 12.5441 29.0092 13.1208L23.3832 18.4988C23.1418 18.7295 23.0315 19.0655 23.0892 19.3943L24.4249 27.0136C24.5677 27.8283 23.7161 28.4543 22.9811 28.0749L15.9619 24.4511C15.6741 24.3025 15.3322 24.3025 15.0444 24.4511L8.02379 28.0756C7.28911 28.4549 6.43769 27.8294 6.57997 27.0149L7.91122 19.394C7.96864 19.0653 7.85833 18.7296 7.61713 18.4991L1.99081 13.1208C1.38755 12.5441 1.71439 11.5258 2.54058 11.408L10.3477 10.2942C10.6718 10.248 10.9527 10.0461 11.0999 9.75361L14.6092 2.77715Z" stroke="#E33A40" stroke-width="3" stroke-miterlimit="10"/>
</svg>
